<mxfile host="app.diagrams.net" modified="2023-09-07T11:11:48.124Z" agent="Mozilla/5.0 (Windows NT 10.0; Win64; x64) AppleWebKit/537.36 (KHTML, like Gecko) Chrome/116.0.0.0 Safari/537.36 Edg/116.0.1938.69" etag="dUPaybscSec2XTfznRf6" version="21.7.2" type="github">
  <diagram name="第 1 页" id="FiaRHqWzxaH6kxDjL9Pj">
    <mxGraphModel dx="1142" dy="613" grid="1" gridSize="10" guides="1" tooltips="1" connect="1" arrows="1" fold="1" page="1" pageScale="1" pageWidth="827" pageHeight="1169" math="0" shadow="0">
      <root>
        <mxCell id="0" />
        <mxCell id="1" parent="0" />
        <mxCell id="z0fsNBwdn9CVIXWZAO4e-4" style="edgeStyle=orthogonalEdgeStyle;rounded=0;orthogonalLoop=1;jettySize=auto;html=1;exitX=0.5;exitY=1;exitDx=0;exitDy=0;" edge="1" parent="1" source="z0fsNBwdn9CVIXWZAO4e-1" target="z0fsNBwdn9CVIXWZAO4e-3">
          <mxGeometry relative="1" as="geometry" />
        </mxCell>
        <mxCell id="z0fsNBwdn9CVIXWZAO4e-1" value="rabbitmq" style="rounded=1;whiteSpace=wrap;html=1;" vertex="1" parent="1">
          <mxGeometry x="130" y="200" width="120" height="60" as="geometry" />
        </mxCell>
        <mxCell id="z0fsNBwdn9CVIXWZAO4e-2" value="订单服务监听秒杀消息" style="text;html=1;strokeColor=none;fillColor=none;align=center;verticalAlign=middle;whiteSpace=wrap;rounded=0;" vertex="1" parent="1">
          <mxGeometry x="105" y="280" width="170" height="30" as="geometry" />
        </mxCell>
        <mxCell id="z0fsNBwdn9CVIXWZAO4e-6" style="edgeStyle=orthogonalEdgeStyle;rounded=0;orthogonalLoop=1;jettySize=auto;html=1;exitX=0.5;exitY=1;exitDx=0;exitDy=0;entryX=0.5;entryY=0;entryDx=0;entryDy=0;" edge="1" parent="1" source="z0fsNBwdn9CVIXWZAO4e-3" target="z0fsNBwdn9CVIXWZAO4e-5">
          <mxGeometry relative="1" as="geometry" />
        </mxCell>
        <mxCell id="z0fsNBwdn9CVIXWZAO4e-3" value="创建订单" style="rounded=1;whiteSpace=wrap;html=1;" vertex="1" parent="1">
          <mxGeometry x="130" y="330" width="120" height="60" as="geometry" />
        </mxCell>
        <mxCell id="z0fsNBwdn9CVIXWZAO4e-8" style="edgeStyle=orthogonalEdgeStyle;rounded=0;orthogonalLoop=1;jettySize=auto;html=1;exitX=0.5;exitY=1;exitDx=0;exitDy=0;entryX=0.5;entryY=0;entryDx=0;entryDy=0;" edge="1" parent="1" source="z0fsNBwdn9CVIXWZAO4e-5" target="z0fsNBwdn9CVIXWZAO4e-12">
          <mxGeometry relative="1" as="geometry">
            <mxPoint x="190" y="555" as="targetPoint" />
          </mxGeometry>
        </mxCell>
        <mxCell id="z0fsNBwdn9CVIXWZAO4e-5" value="保存订单项" style="rounded=1;whiteSpace=wrap;html=1;" vertex="1" parent="1">
          <mxGeometry x="130" y="440" width="120" height="60" as="geometry" />
        </mxCell>
        <mxCell id="z0fsNBwdn9CVIXWZAO4e-15" style="edgeStyle=orthogonalEdgeStyle;rounded=0;orthogonalLoop=1;jettySize=auto;html=1;exitX=1;exitY=0.5;exitDx=0;exitDy=0;entryX=0;entryY=0.5;entryDx=0;entryDy=0;" edge="1" parent="1" source="z0fsNBwdn9CVIXWZAO4e-12" target="z0fsNBwdn9CVIXWZAO4e-13">
          <mxGeometry relative="1" as="geometry" />
        </mxCell>
        <mxCell id="z0fsNBwdn9CVIXWZAO4e-17" style="edgeStyle=orthogonalEdgeStyle;rounded=0;orthogonalLoop=1;jettySize=auto;html=1;exitX=1;exitY=0.5;exitDx=0;exitDy=0;entryX=0;entryY=0.5;entryDx=0;entryDy=0;" edge="1" parent="1" source="z0fsNBwdn9CVIXWZAO4e-12" target="z0fsNBwdn9CVIXWZAO4e-14">
          <mxGeometry relative="1" as="geometry" />
        </mxCell>
        <mxCell id="z0fsNBwdn9CVIXWZAO4e-12" value="锁库存" style="rhombus;whiteSpace=wrap;html=1;" vertex="1" parent="1">
          <mxGeometry x="125" y="545" width="130" height="80" as="geometry" />
        </mxCell>
        <mxCell id="z0fsNBwdn9CVIXWZAO4e-13" value="向MQ发送消息，订单锁定成功（与普通订单创建一样）" style="rounded=1;whiteSpace=wrap;html=1;" vertex="1" parent="1">
          <mxGeometry x="410" y="460" width="120" height="60" as="geometry" />
        </mxCell>
        <mxCell id="z0fsNBwdn9CVIXWZAO4e-14" value="修改订单状态为秒杀异常，存入表中，做补偿" style="rounded=1;whiteSpace=wrap;html=1;" vertex="1" parent="1">
          <mxGeometry x="410" y="640" width="120" height="60" as="geometry" />
        </mxCell>
        <mxCell id="z0fsNBwdn9CVIXWZAO4e-18" value="锁定成功" style="text;html=1;strokeColor=none;fillColor=none;align=center;verticalAlign=middle;whiteSpace=wrap;rounded=0;" vertex="1" parent="1">
          <mxGeometry x="280" y="515" width="60" height="30" as="geometry" />
        </mxCell>
        <mxCell id="z0fsNBwdn9CVIXWZAO4e-19" value="锁定失败" style="text;html=1;strokeColor=none;fillColor=none;align=center;verticalAlign=middle;whiteSpace=wrap;rounded=0;" vertex="1" parent="1">
          <mxGeometry x="280" y="625" width="60" height="30" as="geometry" />
        </mxCell>
      </root>
    </mxGraphModel>
  </diagram>
</mxfile>
